<svg xmlns="http://www.w3.org/2000/svg" viewBox="0 0 24.86 31.83"><defs><style>.cls-1{fill:#53acfe;}.cls-1,.cls-2,.cls-3,.cls-4,.cls-5{fill-rule:evenodd;}.cls-2{fill:#edf2fd;opacity:0.69;isolation:isolate;}.cls-3{fill:#fcd2a8;}.cls-4{fill:#93cdb9;}.cls-5{fill:#f7ac6c;}</style></defs><title>Fichier 1</title><g id="Calque_2" data-name="Calque 2"><g id="Calque_1-2" data-name="Calque 1"><g id="logo_" data-name="logo "><path id="Path" class="cls-1" d="M13,10.31l.08-5.66V3.54s0-.32.59-.68,5-2,5-2L20.86,0s.82.09.3,1c-1.37.59-5,2-5,2l-1.62.62-.35.13,0,6.58Z"/><path class="cls-2" d="M9.32,30.5v1.33H18V30.5a2.93,2.93,0,0,1-2.52,0c-1.17-.66-1.26-3-1.26-3l.17-4.82L24.86,5.93H2.53l10.59,16.6v4.9s-.34,2.74-1.51,3.24A2.67,2.67,0,0,1,9.32,30.5Z"/><polygon class="cls-3" points="6.85 10.32 7.57 11.23 19.72 11.23 20.43 10.32 6.85 10.32"/><polygon class="cls-4" points="8.12 11.9 7.57 11.23 19.72 11.23 17.35 14.73 9.89 14.73 8.12 11.9"/><path class="cls-1" d="M12.8,19.11,9.89,14.73h7.46L14.7,19.11a1.38,1.38,0,0,1-1,.5A1.11,1.11,0,0,1,12.8,19.11Z"/><path class="cls-5" d="M2.56,5.93,5.9,11.18l.44.7A4.86,4.86,0,0,1,5.2,12,5.14,5.14,0,0,1,4.58,1.76,5.2,5.2,0,0,1,10.32,6Z"/><path class="cls-3" d="M2.56,5.93,5.9,11.18A4.39,4.39,0,0,1,4.35,2.54,4.44,4.44,0,0,1,9.54,5.93Z"/></g></g></g></svg>