<?xml version="1.0" encoding="UTF-8"?>
<svg width="100px" height="34px" viewBox="0 0 100 34" version="1.1" xmlns="http://www.w3.org/2000/svg" xmlns:xlink="http://www.w3.org/1999/xlink">
    <!-- Generator: Sketch 52.6 (67491) - http://www.bohemiancoding.com/sketch -->
    <title>Artboard</title>
    <desc>Created with Sketch.</desc>
    <g id="Page-1" stroke="none" stroke-width="1" fill="none" fill-rule="evenodd">
        <g id="Artboard" transform="translate(-155.000000, -13.000000)">
            <g id="Logo" transform="translate(156.000000, 14.000000)">
                <g id="logo_">
                    <path d="M13.3467405,10.305577 L13.4285133,4.64506401 L13.4285133,3.5382598 C13.4285133,3.5382598 13.4534007,3.21851636 14.0186995,2.86012262 C14.5839983,2.50172887 19.0601694,0.892470694 19.0601694,0.892470694 L21.1933725,0 C21.1933725,0 22.007545,0.0878416038 21.4920209,0.976798634 C20.1232156,1.56709421 16.482549,2.96553254 16.482549,2.96553254 L14.8613147,3.59096476 L14.5057809,3.71745667 L14.4631168,10.295036 L13.3467405,10.305577 Z" id="Path" fill="#53ACFE"></path>
                    <path d="M9.64918855,30.5021185 L9.64918855,31.8302835 L18.3028823,31.8302835 L18.3028823,30.5021185 C18.3028823,30.5021185 16.9589644,31.166201 15.7821474,30.5021185 C14.6053303,29.838036 14.5235576,27.515504 14.5235576,27.515504 L14.6906585,22.6982704 L25.1895729,5.92755142 L2.86204745,5.92755142 L13.44629,22.5331282 L13.44629,27.431176 C13.44629,27.431176 13.1120882,30.1718341 11.9352712,30.6672607 C11.1871927,30.9567625 10.3467191,30.8960483 9.64918855,30.5021185 Z" id="Path" fill="#EDF2FD" opacity="0.69"></path>
                    <polygon id="Path" fill="#FCD2A8" points="7.17822832 10.3161179 7.89640669 11.2331843 20.0449982 11.2331843 20.7596212 10.3161179"></polygon>
                    <polygon id="Path" fill="#93CDB9" points="8.44392881 11.9007805 7.89640669 11.2331843 20.0449982 11.2331843 17.6806981 14.7327938 10.2144874 14.7327938"></polygon>
                    <path d="M13.1263095,19.1108193 L10.2144874,14.7327938 L17.6806981,14.7327938 L15.0248603,19.1108193 C14.7777717,19.4129931 14.4114245,19.5959386 14.0186995,19.6132733 C13.656983,19.596684 13.3251923,19.4098715 13.1263095,19.1108193 Z" id="Path" fill="#53ACFE"></path>
                    <path d="M2.88693482,5.93106509 L6.22895296,11.1769657 L6.66981493,11.8796985 C6.29560617,11.9652381 5.9126366,12.0076845 5.52855129,12.0061904 C2.77678562,12.0053176 0.501821453,9.88643953 0.337987588,7.17175311 C0.174153724,4.45706669 2.17814361,2.08596821 4.91029571,1.76184913 C7.64244781,1.43773006 10.157322,3.27274929 10.6482386,5.94863341 L2.88693482,5.93106509 Z" id="Path" fill="#F7AC6C"></path>
                    <path d="M2.88693482,5.93106509 L6.22895296,11.1769657 C3.83865863,11.5555008 1.58250676,9.97071064 1.15845137,7.61529013 C0.73439598,5.25986962 2.29896442,3.00325168 4.67468042,2.54374108 C7.05039643,2.08423048 9.36033559,3.5914418 9.86606419,5.93106509 L2.88693482,5.93106509 Z" id="Path" fill="#FCD2A8"></path>
                </g>
                <text id="OPLAYNER" font-family="Montserrat-Regular, Montserrat" font-size="11.5663837" font-weight="normal" letter-spacing="0.549403196" fill="#53ACFE">
                    <tspan x="29.6870514" y="22.9519298">OPLAYNER</tspan>
                </text>
            </g>
        </g>
    </g>
</svg>