<?xml version="1.0" encoding="UTF-8"?>
<svg width="12px" height="12px" viewBox="0 0 12 12" version="1.1" xmlns="http://www.w3.org/2000/svg" xmlns:xlink="http://www.w3.org/1999/xlink">
    <!-- Generator: Sketch 52.6 (67491) - http://www.bohemiancoding.com/sketch -->
    <title>Artboard</title>
    <desc>Created with Sketch.</desc>
    <g id="Page-1" stroke="none" stroke-width="1" fill="none" fill-rule="evenodd">
        <g id="Artboard" transform="translate(-65.000000, -207.000000)" fill="#FFFFFF">
            <g id="Header" transform="translate(71.192388, 213.192388) rotate(45.000000) translate(-71.192388, -213.192388) translate(64.692388, 206.692388)">
                <path d="M7.515625,5.484375 L12.025,5.484375 C12.5634776,5.484375 13,5.92089737 13,6.459375 L13,6.540625 C13,7.07910263 12.5634776,7.515625 12.025,7.515625 L7.515625,7.515625 L7.515625,12.025 C7.515625,12.5634776 7.07910263,13 6.540625,13 L6.459375,13 C5.92089737,13 5.484375,12.5634776 5.484375,12.025 L5.484375,7.515625 L0.975,7.515625 C0.436522369,7.515625 1.77635684e-15,7.07910263 0,6.540625 L-1.77635684e-15,6.459375 C-1.77635684e-15,5.92089737 0.436522369,5.484375 0.975,5.484375 L5.484375,5.484375 L5.484375,0.975 C5.484375,0.436522369 5.92089737,1.81953241e-12 6.459375,1.81943349e-12 L6.540625,1.81887838e-12 C7.07910263,1.81877946e-12 7.515625,0.436522369 7.515625,0.975 L7.515625,5.484375 Z" id="Arrow"></path>
            </g>
        </g>
    </g>
</svg>